<mxfile host="app.diagrams.net" modified="2023-05-24T14:54:41.242Z" agent="Mozilla/5.0 (Windows NT 10.0; Win64; x64) AppleWebKit/537.36 (KHTML, like Gecko) Chrome/113.0.0.0 Safari/537.36" etag="3CgDEs5Gc3sGB2dAnMB0" version="21.3.3" type="github">
  <diagram name="Page-1" id="2YBvvXClWsGukQMizWep">
    <mxGraphModel dx="1185" dy="610" grid="1" gridSize="10" guides="1" tooltips="1" connect="1" arrows="1" fold="1" page="1" pageScale="1" pageWidth="850" pageHeight="1100" math="0" shadow="0">
      <root>
        <mxCell id="0" />
        <mxCell id="1" parent="0" />
        <mxCell id="aM9ryv3xv72pqoxQDRHE-1" value="算法开发人员" style="shape=umlLifeline;perimeter=lifelinePerimeter;whiteSpace=wrap;html=1;container=0;dropTarget=0;collapsible=0;recursiveResize=0;outlineConnect=0;portConstraint=eastwest;newEdgeStyle={&quot;edgeStyle&quot;:&quot;elbowEdgeStyle&quot;,&quot;elbow&quot;:&quot;vertical&quot;,&quot;curved&quot;:0,&quot;rounded&quot;:0};" parent="1" vertex="1">
          <mxGeometry x="10" y="10" width="100" height="570" as="geometry" />
        </mxCell>
        <mxCell id="aM9ryv3xv72pqoxQDRHE-2" value="" style="html=1;points=[];perimeter=orthogonalPerimeter;outlineConnect=0;targetShapes=umlLifeline;portConstraint=eastwest;newEdgeStyle={&quot;edgeStyle&quot;:&quot;elbowEdgeStyle&quot;,&quot;elbow&quot;:&quot;vertical&quot;,&quot;curved&quot;:0,&quot;rounded&quot;:0};" parent="aM9ryv3xv72pqoxQDRHE-1" vertex="1">
          <mxGeometry x="45" y="70" width="10" height="310" as="geometry" />
        </mxCell>
        <mxCell id="aM9ryv3xv72pqoxQDRHE-5" value="服务器" style="shape=umlLifeline;perimeter=lifelinePerimeter;whiteSpace=wrap;html=1;container=0;dropTarget=0;collapsible=0;recursiveResize=0;outlineConnect=0;portConstraint=eastwest;newEdgeStyle={&quot;edgeStyle&quot;:&quot;elbowEdgeStyle&quot;,&quot;elbow&quot;:&quot;vertical&quot;,&quot;curved&quot;:0,&quot;rounded&quot;:0};" parent="1" vertex="1">
          <mxGeometry x="180" y="10" width="100" height="570" as="geometry" />
        </mxCell>
        <mxCell id="aM9ryv3xv72pqoxQDRHE-6" value="" style="html=1;points=[];perimeter=orthogonalPerimeter;outlineConnect=0;targetShapes=umlLifeline;portConstraint=eastwest;newEdgeStyle={&quot;edgeStyle&quot;:&quot;elbowEdgeStyle&quot;,&quot;elbow&quot;:&quot;vertical&quot;,&quot;curved&quot;:0,&quot;rounded&quot;:0};" parent="aM9ryv3xv72pqoxQDRHE-5" vertex="1">
          <mxGeometry x="45" y="80" width="10" height="290" as="geometry" />
        </mxCell>
        <mxCell id="XDNzw2oiLa9YKsCj1KVU-11" value="" style="edgeStyle=orthogonalEdgeStyle;rounded=0;orthogonalLoop=1;jettySize=auto;html=1;elbow=vertical;curved=1;" edge="1" parent="aM9ryv3xv72pqoxQDRHE-5" source="aM9ryv3xv72pqoxQDRHE-6" target="aM9ryv3xv72pqoxQDRHE-6">
          <mxGeometry relative="1" as="geometry">
            <mxPoint x="70" y="240" as="targetPoint" />
            <Array as="points">
              <mxPoint x="130" y="210" />
              <mxPoint x="130" y="230" />
            </Array>
          </mxGeometry>
        </mxCell>
        <mxCell id="XDNzw2oiLa9YKsCj1KVU-12" value="确认代码符合规范" style="edgeLabel;html=1;align=center;verticalAlign=middle;resizable=0;points=[];" vertex="1" connectable="0" parent="XDNzw2oiLa9YKsCj1KVU-11">
          <mxGeometry x="-0.6229" relative="1" as="geometry">
            <mxPoint x="43" y="-10" as="offset" />
          </mxGeometry>
        </mxCell>
        <mxCell id="XDNzw2oiLa9YKsCj1KVU-20" value="" style="html=1;points=[];perimeter=orthogonalPerimeter;outlineConnect=0;targetShapes=umlLifeline;portConstraint=eastwest;newEdgeStyle={&quot;edgeStyle&quot;:&quot;elbowEdgeStyle&quot;,&quot;elbow&quot;:&quot;vertical&quot;,&quot;curved&quot;:0,&quot;rounded&quot;:0};" vertex="1" parent="aM9ryv3xv72pqoxQDRHE-5">
          <mxGeometry x="45" y="400" width="10" height="60" as="geometry" />
        </mxCell>
        <mxCell id="XDNzw2oiLa9YKsCj1KVU-27" value="" style="html=1;points=[];perimeter=orthogonalPerimeter;outlineConnect=0;targetShapes=umlLifeline;portConstraint=eastwest;newEdgeStyle={&quot;edgeStyle&quot;:&quot;elbowEdgeStyle&quot;,&quot;elbow&quot;:&quot;vertical&quot;,&quot;curved&quot;:0,&quot;rounded&quot;:0};" vertex="1" parent="aM9ryv3xv72pqoxQDRHE-5">
          <mxGeometry x="45" y="490" width="10" height="60" as="geometry" />
        </mxCell>
        <mxCell id="XDNzw2oiLa9YKsCj1KVU-29" value="" style="edgeStyle=elbowEdgeStyle;rounded=0;orthogonalLoop=1;jettySize=auto;html=1;elbow=vertical;curved=0;" edge="1" parent="aM9ryv3xv72pqoxQDRHE-5" target="XDNzw2oiLa9YKsCj1KVU-28">
          <mxGeometry relative="1" as="geometry">
            <Array as="points">
              <mxPoint x="170" y="520" />
              <mxPoint x="90" y="570" />
              <mxPoint x="180" y="560" />
              <mxPoint x="170" y="600" />
              <mxPoint x="140" y="540" />
              <mxPoint x="90" y="610" />
              <mxPoint x="100" y="590" />
              <mxPoint x="120" y="530" />
              <mxPoint x="190" y="540" />
              <mxPoint x="190" y="530" />
              <mxPoint x="180" y="530" />
              <mxPoint x="190" y="520" />
            </Array>
            <mxPoint x="55" y="520" as="sourcePoint" />
          </mxGeometry>
        </mxCell>
        <mxCell id="XDNzw2oiLa9YKsCj1KVU-30" value="更新打包状态" style="edgeLabel;html=1;align=center;verticalAlign=middle;resizable=0;points=[];" vertex="1" connectable="0" parent="XDNzw2oiLa9YKsCj1KVU-29">
          <mxGeometry x="0.1429" y="-1" relative="1" as="geometry">
            <mxPoint x="-11" y="-11" as="offset" />
          </mxGeometry>
        </mxCell>
        <mxCell id="XDNzw2oiLa9YKsCj1KVU-31" value="" style="edgeStyle=elbowEdgeStyle;rounded=0;orthogonalLoop=1;jettySize=auto;html=1;elbow=vertical;curved=0;dashed=1;" edge="1" parent="aM9ryv3xv72pqoxQDRHE-5" source="XDNzw2oiLa9YKsCj1KVU-28">
          <mxGeometry relative="1" as="geometry">
            <Array as="points">
              <mxPoint x="170" y="550" />
              <mxPoint x="160" y="600" />
              <mxPoint x="190" y="590" />
              <mxPoint x="150" y="630" />
              <mxPoint x="80" y="600" />
              <mxPoint x="100" y="570" />
              <mxPoint x="180" y="640" />
              <mxPoint x="90" y="650" />
              <mxPoint x="110" y="630" />
              <mxPoint x="180" y="570" />
            </Array>
            <mxPoint x="55" y="550" as="targetPoint" />
          </mxGeometry>
        </mxCell>
        <mxCell id="XDNzw2oiLa9YKsCj1KVU-32" value="更新成功" style="edgeLabel;html=1;align=center;verticalAlign=middle;resizable=0;points=[];" vertex="1" connectable="0" parent="XDNzw2oiLa9YKsCj1KVU-31">
          <mxGeometry x="-0.1581" y="1" relative="1" as="geometry">
            <mxPoint x="-12" y="-11" as="offset" />
          </mxGeometry>
        </mxCell>
        <mxCell id="aM9ryv3xv72pqoxQDRHE-7" value="发起打包请求" style="html=1;verticalAlign=bottom;endArrow=block;edgeStyle=elbowEdgeStyle;elbow=vertical;curved=0;rounded=0;" parent="1" source="aM9ryv3xv72pqoxQDRHE-2" target="aM9ryv3xv72pqoxQDRHE-6" edge="1">
          <mxGeometry relative="1" as="geometry">
            <mxPoint x="165" y="100" as="sourcePoint" />
            <Array as="points">
              <mxPoint x="150" y="90" />
            </Array>
          </mxGeometry>
        </mxCell>
        <mxCell id="GMgPl1QR8HGivyutwA11-2" value="" style="edgeStyle=elbowEdgeStyle;rounded=0;orthogonalLoop=1;jettySize=auto;html=1;elbow=vertical;curved=0;" parent="1" source="aM9ryv3xv72pqoxQDRHE-6" target="GMgPl1QR8HGivyutwA11-7" edge="1">
          <mxGeometry relative="1" as="geometry">
            <mxPoint x="385" y="125" as="targetPoint" />
            <Array as="points">
              <mxPoint x="360" y="100" />
              <mxPoint x="350" y="110" />
              <mxPoint x="280" y="120" />
              <mxPoint x="300" y="110" />
              <mxPoint x="290" y="100" />
              <mxPoint x="300" y="200" />
              <mxPoint x="320" y="100" />
              <mxPoint x="290" y="60" />
              <mxPoint x="380" y="90" />
            </Array>
            <mxPoint x="225" y="100" as="sourcePoint" />
          </mxGeometry>
        </mxCell>
        <mxCell id="GMgPl1QR8HGivyutwA11-18" value="获取算法信息" style="edgeLabel;html=1;align=center;verticalAlign=middle;resizable=0;points=[];" parent="GMgPl1QR8HGivyutwA11-2" vertex="1" connectable="0">
          <mxGeometry x="0.1346" relative="1" as="geometry">
            <mxPoint x="-10" y="-10" as="offset" />
          </mxGeometry>
        </mxCell>
        <mxCell id="GMgPl1QR8HGivyutwA11-6" value="数据库" style="shape=umlLifeline;perimeter=lifelinePerimeter;whiteSpace=wrap;html=1;container=0;dropTarget=0;collapsible=0;recursiveResize=0;outlineConnect=0;portConstraint=eastwest;newEdgeStyle={&quot;edgeStyle&quot;:&quot;elbowEdgeStyle&quot;,&quot;elbow&quot;:&quot;vertical&quot;,&quot;curved&quot;:0,&quot;rounded&quot;:0};" parent="1" vertex="1">
          <mxGeometry x="350" y="10" width="100" height="570" as="geometry" />
        </mxCell>
        <mxCell id="GMgPl1QR8HGivyutwA11-7" value="" style="html=1;points=[];perimeter=orthogonalPerimeter;outlineConnect=0;targetShapes=umlLifeline;portConstraint=eastwest;newEdgeStyle={&quot;edgeStyle&quot;:&quot;elbowEdgeStyle&quot;,&quot;elbow&quot;:&quot;vertical&quot;,&quot;curved&quot;:0,&quot;rounded&quot;:0};" parent="GMgPl1QR8HGivyutwA11-6" vertex="1">
          <mxGeometry x="45" y="90" width="10" height="40" as="geometry" />
        </mxCell>
        <mxCell id="GMgPl1QR8HGivyutwA11-43" value="" style="html=1;points=[];perimeter=orthogonalPerimeter;outlineConnect=0;targetShapes=umlLifeline;portConstraint=eastwest;newEdgeStyle={&quot;edgeStyle&quot;:&quot;elbowEdgeStyle&quot;,&quot;elbow&quot;:&quot;vertical&quot;,&quot;curved&quot;:0,&quot;rounded&quot;:0};" parent="GMgPl1QR8HGivyutwA11-6" vertex="1">
          <mxGeometry x="45" y="330" width="10" height="40" as="geometry" />
        </mxCell>
        <mxCell id="XDNzw2oiLa9YKsCj1KVU-21" value="" style="html=1;points=[];perimeter=orthogonalPerimeter;outlineConnect=0;targetShapes=umlLifeline;portConstraint=eastwest;newEdgeStyle={&quot;edgeStyle&quot;:&quot;elbowEdgeStyle&quot;,&quot;elbow&quot;:&quot;vertical&quot;,&quot;curved&quot;:0,&quot;rounded&quot;:0};" vertex="1" parent="GMgPl1QR8HGivyutwA11-6">
          <mxGeometry x="45" y="430" width="10" height="40" as="geometry" />
        </mxCell>
        <mxCell id="XDNzw2oiLa9YKsCj1KVU-28" value="" style="html=1;points=[];perimeter=orthogonalPerimeter;outlineConnect=0;targetShapes=umlLifeline;portConstraint=eastwest;newEdgeStyle={&quot;edgeStyle&quot;:&quot;elbowEdgeStyle&quot;,&quot;elbow&quot;:&quot;vertical&quot;,&quot;curved&quot;:0,&quot;rounded&quot;:0};" vertex="1" parent="GMgPl1QR8HGivyutwA11-6">
          <mxGeometry x="45" y="520" width="10" height="40" as="geometry" />
        </mxCell>
        <mxCell id="GMgPl1QR8HGivyutwA11-8" value="Docker Service" style="shape=umlLifeline;perimeter=lifelinePerimeter;whiteSpace=wrap;html=1;container=0;dropTarget=0;collapsible=0;recursiveResize=0;outlineConnect=0;portConstraint=eastwest;newEdgeStyle={&quot;edgeStyle&quot;:&quot;elbowEdgeStyle&quot;,&quot;elbow&quot;:&quot;vertical&quot;,&quot;curved&quot;:0,&quot;rounded&quot;:0};" parent="1" vertex="1">
          <mxGeometry x="520" y="10" width="100" height="570" as="geometry" />
        </mxCell>
        <mxCell id="GMgPl1QR8HGivyutwA11-9" value="" style="html=1;points=[];perimeter=orthogonalPerimeter;outlineConnect=0;targetShapes=umlLifeline;portConstraint=eastwest;newEdgeStyle={&quot;edgeStyle&quot;:&quot;elbowEdgeStyle&quot;,&quot;elbow&quot;:&quot;vertical&quot;,&quot;curved&quot;:0,&quot;rounded&quot;:0};" parent="GMgPl1QR8HGivyutwA11-8" vertex="1">
          <mxGeometry x="45" y="250" width="10" height="250" as="geometry" />
        </mxCell>
        <mxCell id="GMgPl1QR8HGivyutwA11-54" style="edgeStyle=orthogonalEdgeStyle;rounded=0;orthogonalLoop=1;jettySize=auto;html=1;elbow=vertical;curved=1;" parent="GMgPl1QR8HGivyutwA11-8" source="GMgPl1QR8HGivyutwA11-9" target="GMgPl1QR8HGivyutwA11-9" edge="1">
          <mxGeometry relative="1" as="geometry">
            <Array as="points">
              <mxPoint x="134" y="270" />
              <mxPoint x="134" y="290" />
            </Array>
          </mxGeometry>
        </mxCell>
        <mxCell id="GMgPl1QR8HGivyutwA11-55" value="确认是否存在基本镜像" style="edgeLabel;html=1;align=center;verticalAlign=middle;resizable=0;points=[];" parent="GMgPl1QR8HGivyutwA11-54" vertex="1" connectable="0">
          <mxGeometry x="-0.4732" y="-1" relative="1" as="geometry">
            <mxPoint x="28" y="-11" as="offset" />
          </mxGeometry>
        </mxCell>
        <mxCell id="XDNzw2oiLa9YKsCj1KVU-15" value="" style="edgeStyle=orthogonalEdgeStyle;rounded=0;orthogonalLoop=1;jettySize=auto;html=1;elbow=vertical;curved=1;" edge="1" parent="GMgPl1QR8HGivyutwA11-8" source="GMgPl1QR8HGivyutwA11-9" target="GMgPl1QR8HGivyutwA11-9">
          <mxGeometry relative="1" as="geometry">
            <mxPoint x="60" y="320" as="sourcePoint" />
            <Array as="points">
              <mxPoint x="130" y="310" />
              <mxPoint x="130" y="480" />
            </Array>
          </mxGeometry>
        </mxCell>
        <mxCell id="XDNzw2oiLa9YKsCj1KVU-35" value="执行打包流程" style="edgeLabel;html=1;align=center;verticalAlign=middle;resizable=0;points=[];" vertex="1" connectable="0" parent="XDNzw2oiLa9YKsCj1KVU-15">
          <mxGeometry x="-0.7747" y="-5" relative="1" as="geometry">
            <mxPoint x="49" y="-5" as="offset" />
          </mxGeometry>
        </mxCell>
        <mxCell id="GMgPl1QR8HGivyutwA11-25" value="" style="edgeStyle=elbowEdgeStyle;rounded=0;orthogonalLoop=1;jettySize=auto;html=1;elbow=vertical;curved=0;dashed=1;" parent="1" source="GMgPl1QR8HGivyutwA11-7" target="aM9ryv3xv72pqoxQDRHE-6" edge="1">
          <mxGeometry relative="1" as="geometry">
            <Array as="points">
              <mxPoint x="350" y="130" />
              <mxPoint x="280" y="160" />
              <mxPoint x="360" y="170" />
              <mxPoint x="310" y="200" />
              <mxPoint x="330" y="190" />
            </Array>
            <mxPoint x="225" y="130" as="targetPoint" />
          </mxGeometry>
        </mxCell>
        <mxCell id="GMgPl1QR8HGivyutwA11-26" value="算法信息获取成功" style="edgeLabel;html=1;align=center;verticalAlign=middle;resizable=0;points=[];" parent="GMgPl1QR8HGivyutwA11-25" vertex="1" connectable="0">
          <mxGeometry x="0.1238" relative="1" as="geometry">
            <mxPoint x="9" y="-10" as="offset" />
          </mxGeometry>
        </mxCell>
        <mxCell id="GMgPl1QR8HGivyutwA11-29" value="" style="edgeStyle=elbowEdgeStyle;rounded=0;orthogonalLoop=1;jettySize=auto;html=1;elbow=vertical;curved=0;endArrow=classic;endFill=1;" parent="1" source="aM9ryv3xv72pqoxQDRHE-6" target="GMgPl1QR8HGivyutwA11-9" edge="1">
          <mxGeometry relative="1" as="geometry">
            <Array as="points">
              <mxPoint x="460" y="270" />
              <mxPoint x="424" y="330" />
              <mxPoint x="474" y="360" />
              <mxPoint x="434" y="370" />
              <mxPoint x="414" y="410" />
            </Array>
            <mxPoint x="229" y="330" as="sourcePoint" />
          </mxGeometry>
        </mxCell>
        <mxCell id="GMgPl1QR8HGivyutwA11-30" value="发送打包指令" style="edgeLabel;html=1;align=center;verticalAlign=middle;resizable=0;points=[];" parent="GMgPl1QR8HGivyutwA11-29" vertex="1" connectable="0">
          <mxGeometry x="-0.3991" y="-1" relative="1" as="geometry">
            <mxPoint x="-18" y="-11" as="offset" />
          </mxGeometry>
        </mxCell>
        <mxCell id="GMgPl1QR8HGivyutwA11-42" value="" style="edgeStyle=elbowEdgeStyle;rounded=0;orthogonalLoop=1;jettySize=auto;html=1;elbow=vertical;curved=0;" parent="1" source="aM9ryv3xv72pqoxQDRHE-6" target="GMgPl1QR8HGivyutwA11-43" edge="1">
          <mxGeometry relative="1" as="geometry">
            <Array as="points">
              <mxPoint x="340" y="340" />
              <mxPoint x="260" y="390" />
              <mxPoint x="350" y="380" />
              <mxPoint x="340" y="420" />
              <mxPoint x="310" y="360" />
              <mxPoint x="260" y="430" />
              <mxPoint x="270" y="410" />
              <mxPoint x="290" y="350" />
              <mxPoint x="360" y="360" />
              <mxPoint x="360" y="350" />
              <mxPoint x="350" y="350" />
              <mxPoint x="360" y="340" />
            </Array>
            <mxPoint x="225" y="340" as="sourcePoint" />
          </mxGeometry>
        </mxCell>
        <mxCell id="GMgPl1QR8HGivyutwA11-44" value="更新打包状态" style="edgeLabel;html=1;align=center;verticalAlign=middle;resizable=0;points=[];" parent="GMgPl1QR8HGivyutwA11-42" vertex="1" connectable="0">
          <mxGeometry x="0.1429" y="-1" relative="1" as="geometry">
            <mxPoint x="-11" y="-11" as="offset" />
          </mxGeometry>
        </mxCell>
        <mxCell id="GMgPl1QR8HGivyutwA11-45" value="" style="edgeStyle=elbowEdgeStyle;rounded=0;orthogonalLoop=1;jettySize=auto;html=1;elbow=vertical;curved=0;dashed=1;" parent="1" source="GMgPl1QR8HGivyutwA11-43" target="aM9ryv3xv72pqoxQDRHE-6" edge="1">
          <mxGeometry relative="1" as="geometry">
            <Array as="points">
              <mxPoint x="340" y="370" />
              <mxPoint x="330" y="420" />
              <mxPoint x="360" y="410" />
              <mxPoint x="320" y="450" />
              <mxPoint x="250" y="420" />
              <mxPoint x="270" y="390" />
              <mxPoint x="350" y="460" />
              <mxPoint x="260" y="470" />
              <mxPoint x="280" y="450" />
              <mxPoint x="350" y="390" />
            </Array>
            <mxPoint x="225" y="370" as="targetPoint" />
          </mxGeometry>
        </mxCell>
        <mxCell id="GMgPl1QR8HGivyutwA11-46" value="更新成功" style="edgeLabel;html=1;align=center;verticalAlign=middle;resizable=0;points=[];" parent="GMgPl1QR8HGivyutwA11-45" vertex="1" connectable="0">
          <mxGeometry x="-0.1581" y="1" relative="1" as="geometry">
            <mxPoint x="-12" y="-11" as="offset" />
          </mxGeometry>
        </mxCell>
        <mxCell id="XDNzw2oiLa9YKsCj1KVU-1" value="Gitlab" style="shape=umlLifeline;perimeter=lifelinePerimeter;whiteSpace=wrap;html=1;container=0;dropTarget=0;collapsible=0;recursiveResize=0;outlineConnect=0;portConstraint=eastwest;newEdgeStyle={&quot;edgeStyle&quot;:&quot;elbowEdgeStyle&quot;,&quot;elbow&quot;:&quot;vertical&quot;,&quot;curved&quot;:0,&quot;rounded&quot;:0};" vertex="1" parent="1">
          <mxGeometry x="690" y="10" width="100" height="570" as="geometry" />
        </mxCell>
        <mxCell id="XDNzw2oiLa9YKsCj1KVU-2" value="" style="html=1;points=[];perimeter=orthogonalPerimeter;outlineConnect=0;targetShapes=umlLifeline;portConstraint=eastwest;newEdgeStyle={&quot;edgeStyle&quot;:&quot;elbowEdgeStyle&quot;,&quot;elbow&quot;:&quot;vertical&quot;,&quot;curved&quot;:0,&quot;rounded&quot;:0};" vertex="1" parent="XDNzw2oiLa9YKsCj1KVU-1">
          <mxGeometry x="45" y="150" width="10" height="40" as="geometry" />
        </mxCell>
        <mxCell id="XDNzw2oiLa9YKsCj1KVU-7" value="" style="edgeStyle=elbowEdgeStyle;rounded=0;orthogonalLoop=1;jettySize=auto;html=1;elbow=vertical;curved=0;" edge="1" parent="1" source="aM9ryv3xv72pqoxQDRHE-6" target="XDNzw2oiLa9YKsCj1KVU-2">
          <mxGeometry relative="1" as="geometry">
            <mxPoint x="225" y="160" as="sourcePoint" />
            <Array as="points">
              <mxPoint x="260" y="160" />
            </Array>
          </mxGeometry>
        </mxCell>
        <mxCell id="XDNzw2oiLa9YKsCj1KVU-8" value="拉取算法代码" style="edgeLabel;html=1;align=center;verticalAlign=middle;resizable=0;points=[];" vertex="1" connectable="0" parent="XDNzw2oiLa9YKsCj1KVU-7">
          <mxGeometry x="-0.7007" y="-2" relative="1" as="geometry">
            <mxPoint x="8" y="-12" as="offset" />
          </mxGeometry>
        </mxCell>
        <mxCell id="XDNzw2oiLa9YKsCj1KVU-9" value="" style="edgeStyle=elbowEdgeStyle;rounded=0;orthogonalLoop=1;jettySize=auto;html=1;elbow=vertical;curved=0;" edge="1" parent="1" source="XDNzw2oiLa9YKsCj1KVU-2" target="aM9ryv3xv72pqoxQDRHE-6">
          <mxGeometry relative="1" as="geometry">
            <mxPoint x="225" y="190" as="targetPoint" />
            <Array as="points">
              <mxPoint x="660" y="190" />
              <mxPoint x="610" y="180" />
            </Array>
          </mxGeometry>
        </mxCell>
        <mxCell id="XDNzw2oiLa9YKsCj1KVU-10" value="返回算法代码" style="edgeLabel;html=1;align=center;verticalAlign=middle;resizable=0;points=[];" vertex="1" connectable="0" parent="XDNzw2oiLa9YKsCj1KVU-9">
          <mxGeometry x="0.7554" y="-1" relative="1" as="geometry">
            <mxPoint x="22" y="-9" as="offset" />
          </mxGeometry>
        </mxCell>
        <mxCell id="XDNzw2oiLa9YKsCj1KVU-13" value="" style="edgeStyle=elbowEdgeStyle;rounded=0;orthogonalLoop=1;jettySize=auto;html=1;elbow=vertical;curved=0;dashed=1;" edge="1" parent="1" source="GMgPl1QR8HGivyutwA11-9" target="aM9ryv3xv72pqoxQDRHE-6">
          <mxGeometry relative="1" as="geometry">
            <Array as="points">
              <mxPoint x="460" y="310" />
            </Array>
          </mxGeometry>
        </mxCell>
        <mxCell id="XDNzw2oiLa9YKsCj1KVU-14" value="开始进行打包" style="edgeLabel;html=1;align=center;verticalAlign=middle;resizable=0;points=[];" vertex="1" connectable="0" parent="XDNzw2oiLa9YKsCj1KVU-13">
          <mxGeometry x="0.5954" y="-1" relative="1" as="geometry">
            <mxPoint x="12" y="-9" as="offset" />
          </mxGeometry>
        </mxCell>
        <mxCell id="XDNzw2oiLa9YKsCj1KVU-16" value="" style="edgeStyle=elbowEdgeStyle;rounded=0;orthogonalLoop=1;jettySize=auto;html=1;elbow=vertical;curved=0;" edge="1" parent="1" source="aM9ryv3xv72pqoxQDRHE-6" target="aM9ryv3xv72pqoxQDRHE-2">
          <mxGeometry relative="1" as="geometry">
            <Array as="points">
              <mxPoint x="190" y="380" />
              <mxPoint x="170" y="390" />
              <mxPoint x="200" y="320" />
            </Array>
          </mxGeometry>
        </mxCell>
        <mxCell id="XDNzw2oiLa9YKsCj1KVU-17" value="开始打包" style="edgeLabel;html=1;align=center;verticalAlign=middle;resizable=0;points=[];" vertex="1" connectable="0" parent="XDNzw2oiLa9YKsCj1KVU-16">
          <mxGeometry x="0.1326" y="2" relative="1" as="geometry">
            <mxPoint x="10" y="-12" as="offset" />
          </mxGeometry>
        </mxCell>
        <mxCell id="XDNzw2oiLa9YKsCj1KVU-18" value="" style="edgeStyle=elbowEdgeStyle;rounded=0;orthogonalLoop=1;jettySize=auto;html=1;elbow=vertical;curved=0;" edge="1" parent="1" source="GMgPl1QR8HGivyutwA11-9" target="XDNzw2oiLa9YKsCj1KVU-20">
          <mxGeometry relative="1" as="geometry">
            <mxPoint x="310" y="480" as="targetPoint" />
            <Array as="points">
              <mxPoint x="300" y="410" />
            </Array>
          </mxGeometry>
        </mxCell>
        <mxCell id="XDNzw2oiLa9YKsCj1KVU-19" value="持续生成日志" style="edgeLabel;html=1;align=center;verticalAlign=middle;resizable=0;points=[];" vertex="1" connectable="0" parent="XDNzw2oiLa9YKsCj1KVU-18">
          <mxGeometry x="0.8012" y="1" relative="1" as="geometry">
            <mxPoint x="44" y="-11" as="offset" />
          </mxGeometry>
        </mxCell>
        <mxCell id="XDNzw2oiLa9YKsCj1KVU-22" value="" style="edgeStyle=elbowEdgeStyle;rounded=0;orthogonalLoop=1;jettySize=auto;html=1;elbow=vertical;curved=0;" edge="1" parent="1" target="XDNzw2oiLa9YKsCj1KVU-21" source="XDNzw2oiLa9YKsCj1KVU-20">
          <mxGeometry relative="1" as="geometry">
            <Array as="points">
              <mxPoint x="360" y="440" />
              <mxPoint x="280" y="490" />
              <mxPoint x="370" y="480" />
              <mxPoint x="360" y="520" />
              <mxPoint x="330" y="460" />
              <mxPoint x="280" y="530" />
              <mxPoint x="290" y="510" />
              <mxPoint x="310" y="450" />
              <mxPoint x="380" y="460" />
              <mxPoint x="380" y="450" />
              <mxPoint x="370" y="450" />
              <mxPoint x="380" y="440" />
            </Array>
            <mxPoint x="245" y="440" as="sourcePoint" />
          </mxGeometry>
        </mxCell>
        <mxCell id="XDNzw2oiLa9YKsCj1KVU-23" value="保存打包日志" style="edgeLabel;html=1;align=center;verticalAlign=middle;resizable=0;points=[];" vertex="1" connectable="0" parent="XDNzw2oiLa9YKsCj1KVU-22">
          <mxGeometry x="0.1429" y="-1" relative="1" as="geometry">
            <mxPoint x="-11" y="-11" as="offset" />
          </mxGeometry>
        </mxCell>
        <mxCell id="XDNzw2oiLa9YKsCj1KVU-24" value="" style="edgeStyle=elbowEdgeStyle;rounded=0;orthogonalLoop=1;jettySize=auto;html=1;elbow=vertical;curved=0;dashed=1;" edge="1" parent="1" source="XDNzw2oiLa9YKsCj1KVU-21" target="XDNzw2oiLa9YKsCj1KVU-20">
          <mxGeometry relative="1" as="geometry">
            <Array as="points">
              <mxPoint x="360" y="470" />
              <mxPoint x="350" y="520" />
              <mxPoint x="380" y="510" />
              <mxPoint x="340" y="550" />
              <mxPoint x="270" y="520" />
              <mxPoint x="290" y="490" />
              <mxPoint x="370" y="560" />
              <mxPoint x="280" y="570" />
              <mxPoint x="300" y="550" />
              <mxPoint x="370" y="490" />
            </Array>
            <mxPoint x="245" y="470" as="targetPoint" />
          </mxGeometry>
        </mxCell>
        <mxCell id="XDNzw2oiLa9YKsCj1KVU-25" value="更新成功" style="edgeLabel;html=1;align=center;verticalAlign=middle;resizable=0;points=[];" vertex="1" connectable="0" parent="XDNzw2oiLa9YKsCj1KVU-24">
          <mxGeometry x="-0.1581" y="1" relative="1" as="geometry">
            <mxPoint x="-12" y="-11" as="offset" />
          </mxGeometry>
        </mxCell>
        <mxCell id="XDNzw2oiLa9YKsCj1KVU-33" value="" style="edgeStyle=elbowEdgeStyle;rounded=0;orthogonalLoop=1;jettySize=auto;html=1;elbow=vertical;curved=0;" edge="1" parent="1" target="XDNzw2oiLa9YKsCj1KVU-27" source="GMgPl1QR8HGivyutwA11-9">
          <mxGeometry relative="1" as="geometry">
            <mxPoint x="545" y="500" as="sourcePoint" />
            <mxPoint x="320" y="570" as="targetPoint" />
            <Array as="points">
              <mxPoint x="310" y="500" />
            </Array>
          </mxGeometry>
        </mxCell>
        <mxCell id="XDNzw2oiLa9YKsCj1KVU-34" value="打包成功" style="edgeLabel;html=1;align=center;verticalAlign=middle;resizable=0;points=[];" vertex="1" connectable="0" parent="XDNzw2oiLa9YKsCj1KVU-33">
          <mxGeometry x="0.8012" y="1" relative="1" as="geometry">
            <mxPoint x="44" y="-11" as="offset" />
          </mxGeometry>
        </mxCell>
      </root>
    </mxGraphModel>
  </diagram>
</mxfile>
